<?xml version="1.0" encoding="utf-8"?>
<!-- Generator: Adobe Illustrator 22.0.1, SVG Export Plug-In . SVG Version: 6.00 Build 0)  -->
<svg version="1.1" xmlns="http://www.w3.org/2000/svg" xmlns:xlink="http://www.w3.org/1999/xlink" x="0px" y="0px"
	 viewBox="0 0 2272 1872" style="enable-background:new 0 0 2272 1872;" xml:space="preserve">
<style type="text/css">
	.st0{fill:#47654E;}
	.st1{fill:#AA8C5B;}
	.st2{fill:#8E7249;}
	.st3{opacity:0.4;}
	.st4{fill:#AF9872;}
	.st5{fill:#E3D5BD;}
	.st6{opacity:0.4;fill:#8E7249;}
	.st7{fill:#604633;}
	.st8{fill:#CFBA95;}
	.st9{fill:#3C5477;}
	.st10{fill:#435943;}
	.st11{fill:#353535;}
	.st12{fill:#515151;}
	.st13{opacity:0.29;fill:#B5A088;}
	.st14{fill:#303830;}
	.st15{fill:#B5A088;}
	.st16{opacity:0.42;}
	.st17{fill:#CEBDA5;}
	.st18{fill:#C1B099;}
	.st19{fill:#A5927A;}
	.st20{opacity:0.4;fill:#B5A088;}
	.st21{fill:#FFC892;}
</style>
<g id="vv">
	<g id="Layer_1_1_">
	</g>
	<g id="Layer_2">
	</g>
</g>
<g id="Layer_2_1_">
	<rect x="0" class="st0" width="2272" height="1872"/>
	<g>
		<rect x="0" y="1526.6" class="st1" width="2272" height="345.4"/>
		<g>
			<path class="st2" d="M678.4,1526.6c-31.3,76.5-101.2,247-143.4,345.4h344.9c9.4-98.4,21.5-268.9,26.8-345.4H678.4z"/>
			<path class="st2" d="M0,1526.6V1872h68.7c111.1-98.4,302.6-268.9,388.5-345.4H0z"/>
			<path class="st2" d="M1166.6,1526.6c13.7,80.3,42.4,250.1,55.5,345.4h324.7c-24.4-95.3-73.4-265.1-96.7-345.4H1166.6z"/>
			<path class="st2" d="M1750.8,1526.6c30.6,80.3,94.9,250.1,127.7,345.4h324.2c-62.2-95.3-220.6-265-271.8-345.4H1750.8z"/>
		</g>
	</g>
	<g>
		<g class="st3">
			<path class="st4" d="M171.8,176.6c-21.7,20.5-39,44.9-56.5,69c-9.2,12.8-18.3,25.5-27,38.7c-8.7,13.2-17.7,26.5-24.9,40.5
				c-8.1,15.7-15.9,31.6-22.3,48.1c-2.2,5.7,6.8,9.2,9.8,4.1c19.9-34.1,40.3-68.2,62.3-101c21-31.3,39.9-64.6,66.1-91.9
				C184.2,179.2,176.8,171.8,171.8,176.6L171.8,176.6z"/>
		</g>
		<g class="st3">
			<path class="st4" d="M49.7,449.5c21-28.8,46.6-53.6,68-82c4.6-6.2-4.6-15.4-10.8-10.8c-29.6,22.4-53.4,52.4-74.9,82.4
				c-3.2,4.5-0.8,11.4,3.7,14C40.9,456.2,46.5,454,49.7,449.5L49.7,449.5z"/>
		</g>
		<g class="st3">
			<path class="st4" d="M55.9,497c13.8-15.3,24.1-33.3,37.1-49.1c4-4.9-2.4-11.8-7.1-7.1c-14.8,14.4-24.7,32.5-38.3,47.9
				C42.4,494.3,50.8,502.8,55.9,497L55.9,497z"/>
		</g>
		<g class="st3">
			<path class="st4" d="M243.1,1357.5c17.9,17,36.4,33.2,54.5,50c8.6,7.9,16.8,16.6,25.8,23.9c3.3,2.7,7,5,10.3,7.8
				c2,1.6,6,4.5,6.3,7.3c1.2,10,15.4,10.6,16,0c0.6-10.4-6.8-18.7-13.5-25.7c-8.2-8.6-16.2-17.3-24.9-25.4
				c-19.4-18.1-39.4-35.6-58.7-53.8C248.5,1331.5,232.5,1347.5,243.1,1357.5L243.1,1357.5z"/>
		</g>
		<g class="st3">
			<path class="st4" d="M308.8,1371.1c7,1.3,12.3,8.7,16.8,13.6c5.5,6,10.4,12.6,16.2,18.4c14.1,14.3,26.9,32.4,49.3,31.5
				c5.2-0.2,9.6-4.3,9.6-9.6c0-5.7-4.5-9-9.6-9.6c-7.4-0.9-15.1-7.6-20.6-12.2c-6.6-5.5-13.2-11.2-19.4-17
				c-10.9-10.2-24-27.2-40.8-26C304.4,1360.4,302.2,1369.9,308.8,1371.1L308.8,1371.1z"/>
		</g>
		<g class="st3">
			<path class="st4" d="M1869.7,1109.3c11.9-11.5,24.7-21.7,38.8-30.3c6.8-4.1,13.7-7.9,20-12.6c6.8-5.1,12.7-12,17.2-19.2
				c5.8-9.4-7.2-18.7-14.9-11.5c-5.5,5.1-12.2,8.4-18.6,12.2c-6.6,4-13.1,8.1-19.4,12.5c-14,9.9-26.7,21.1-38.5,33.6
				C1844.8,1104.2,1859.6,1119.1,1869.7,1109.3L1869.7,1109.3z"/>
		</g>
		<g class="st3">
			<path class="st4" d="M1899.7,1047c7.8-0.5,14.3-3.9,19.9-9.3c3.6-3.4,7.1-8.6,12.5-9c10.2-0.7,10-14.7,0-15.7
				c-7.2-0.7-13.9,2.1-19.7,6.2c-2.6,1.8-5.5,4.2-7.8,5.7c-0.5,0.3-2.1,1.4-3.1,1.9c-0.6,0.3-0.6,0.3-1.8,0.3
				C1886.9,1027.6,1887,1047.7,1899.7,1047L1899.7,1047z"/>
		</g>
		<g class="st3">
			<path class="st4" d="M2047.1,374.1c7.5,12.7,15.9,24.9,23,37.8c6.8,12.3,13,26.2,15.3,40.1c1.7,10,16.4,6.9,16.9-2.3
				c1.8-32.2-21.9-59.8-37.5-86C2058.1,352.4,2040.4,362.7,2047.1,374.1L2047.1,374.1z"/>
		</g>
		<g class="st3">
			<path class="st4" d="M2078.3,364c3.6,5.4,7.3,10.7,10.9,16.1c3.3,4.9,10.2,7.6,15.6,4.1c5-3.2,7.6-10.3,4.1-15.6
				c-3.5-5.4-7.1-10.8-10.6-16.2c-3.3-5.1-10.4-7.7-15.8-4.2C2077.5,351.4,2074.7,358.6,2078.3,364L2078.3,364z"/>
		</g>
		<g class="st3">
			<path class="st4" d="M2061.4,592.5c9.9,0,19.3-8.7,18.9-18.9c-0.5-10.2-8.3-18.9-18.9-18.9c-9.9,0-19.3,8.7-18.9,18.9
				C2043,583.9,2050.8,592.5,2061.4,592.5L2061.4,592.5z"/>
		</g>
		<g class="st3">
			<path class="st4" d="M1932.6,740.1c-4.1,8.1-7.6,16.2-10.8,24.7c-1.9,4.9,1.7,10.8,6.2,12.6c5,2,10.4,0.2,13.3-4.4
				c4.3-6.9,8.2-13.7,11.8-21c2.9-5.7,1.5-12.9-4.3-16.2C1943.6,732.7,1935.5,734.3,1932.6,740.1L1932.6,740.1z"/>
		</g>
		<g>
			<path class="st5" d="M799.7,808c-3.3,5.1-6,8.3-10.9,13c-1.7,1.6-3.5,3.2-5.4,4.7c-0.6,0.4-3.9,3.1-4.4,3.6
				c-0.3,0.2-0.5,0.4-0.7,0.5c-0.8,0.6-1.6,1.2-2.5,1.8c-4.9,3.4-10,6.3-15.3,8.8c0,0-2.5,1.2-2.9,1.3c-0.7,0.3-1.4,0.6-2.1,0.8
				c-3.5,1.3-7.1,2.5-10.8,3.4c-2.9,0.8-5.7,1.4-8.6,1.9c-0.9,0.2-1.9,0.3-2.9,0.5c-0.2,0-3,0.3-3.2,0.3c-5.9,0.5-12,0.5-17.9-0.2
				c0.2,0-2.9-0.5-3.1-0.5c-1.6-0.3-3.3-0.7-4.9-1.1c-2.3-0.6-4.6-1.3-6.8-2.2c-0.2-0.1-2.6-1.2-2.7-1.2c-1.3-0.7-2.6-1.4-3.8-2.2
				c-0.9-0.6-1.8-1.1-2.7-1.8c0,0-1.8-1.4-2.1-1.7c-7.1-6.4-12-15.2-15-23.9c-3.8-11-6-22.6-7.9-34.1c-2.6-16.2-3.9-32.6-4.5-49.1
				c1.4-0.2,2.8-0.4,4.1-0.6c13.9-1.7,27.7-4,41.3-7.6c25.3-6.7,50.2-15.1,75-23.4c8.3-2.8,10.4-17.5,0-19
				c-14-2.1-26.7-1.1-40.4,2.7c-12.7,3.6-25.1,8.4-37.6,12.6c-12.5,4.2-25.3,7.2-38.2,9.7c-1.5,0.3-3,0.6-4.5,0.8
				c0-9,0.2-18,0.5-26.9c0.9-29.4,2.2-58.9,2.7-88.3c4.2-0.5,8.3-1.4,12.4-2.3c12.2-2.8,23.9-7.2,36.3-9.2c13.5-2.2,27.2-3,40.7-5.2
				c6.6-1.1,12.9-2.9,19.4-4.3c7-1.5,14-2,19.4-7.3c3.5-3.4,4.6-9.9,1.8-14c-9.6-14.2-27.6-7.8-41-3.9c-13.7,3.9-27.8,5.6-41.7,8.4
				c-13,2.6-24.7,7.8-36.7,13.3c-3.5,1.6-7,3.3-10.5,4.9c0-3.9,0-7.8,0-11.8c-0.1-13.5-20.8-13.5-21,0c-0.1,6.9-0.3,13.7-0.6,20.6
				c0,0-0.1,0-0.1,0c-4.3,0.7-4.4,7.7-0.3,8.8c-1.6,28.3-4.7,56.5-6.5,84.7c-0.9,13.7-1.5,27.5-1.8,41.2c-1.7,0.6-3.5,0.9-5.2,0.8
				c-12-0.7-12,17.9,0,18.7c1.7,0.1,3.5,0.1,5.2,0.1c0.2,17.1,1.2,34.1,3.4,51.1c3.4,26.4,8.9,54.8,28.9,74
				c21.9,21.1,54.7,24.9,83.5,19.5c32.5-6.1,62.2-26.6,76.5-56.8C831.2,806,809.5,792.9,799.7,808z"/>
			<path class="st5" d="M1020.7,621c-8.5-0.1-17,0.3-25.5,0.5c-17.8,0.4-35.5,1.2-53.2,2.2c-14,0.8-14,20.9,0,21.7
				c17.4,1,34.7,1.8,52.1,2.2c8.9,0.2,17.8,0.6,26.6,0.5c8.9-0.1,21.7-2,21.7-13.5C1042.4,622.9,1029.6,621.1,1020.7,621z"/>
			<path class="st5" d="M1012.6,696.7c-3.3,2.4-8,2.2-12.7,2.4c-6.3,0.4-12.5,0.7-18.7,1.7c-16.4,2.6-32.5,3.1-49.1,3.6
				c-13.3,0.3-13.3,20.5,0,20.7c10.1,0.1,20.3,0.6,30.4,0.3c8.2-0.2,18.5-1.8,24.3-2.2c14.2-0.8,29.8-0.5,38.5-13.8
				C1030.1,701.9,1020.1,691.3,1012.6,696.7z"/>
			<path class="st5" d="M1282,622.3c0.3,0.4,0.4,0.7,0.6,0.8C1282.4,622.9,1282.3,622.6,1282,622.3
				C1282.1,622.3,1282.1,622.3,1282,622.3z"/>
			<path class="st5" d="M1424.2,705.5c-0.5,0.4-0.9,0.9-1.4,1.3c-0.9,0.6-1.8,1.1-2.7,1.7c-0.4,0.2-0.8,0.4-1.2,0.6c0,0,0,0,0,0
				c-1.6,0.5-3.2,1.1-4.9,1.4c-0.3,0.1-1.8,0.3-2.6,0.5c-0.8,0.1-2.3,0.3-2.9,0.4c0,0-0.1,0-0.1,0c-3.1,0.2-6.3,0.4-9.4,0.2
				c-1.2-0.1-2.5-0.2-3.7-0.3c1.1,0.1-2-0.3-2.8-0.4c-3.2-0.6-6.4-1.4-9.4-2.4c-1.4-0.5-2.7-0.9-4.1-1.5c-0.1,0-0.2-0.1-0.3-0.2
				c-0.6-0.3-1.1-0.5-1.7-0.8c-2.9-1.5-5.7-3.2-8.4-5.1c-0.2-0.2-0.4-0.3-0.5-0.3c-0.1-0.1-0.4-0.4-0.8-0.8c-1-0.9-1.9-1.9-2.8-2.8
				c-0.3-0.2-0.4-0.3-0.5-0.4c-0.1-0.2-0.2-0.4-0.5-0.8c-0.7-1.2-1.4-2.3-2-3.5c0,0,0-0.1,0-0.1c-0.2-0.8-0.5-1.5-0.7-2.3
				c-0.4-1.7-0.6-3.3-0.7-5.1c-0.2-4.5,0.2-9.1,1-13.5c2.5-13.7,6.6-29.4,15-39.6c9.5-11.6,23.6-18,37.4-23.9
				c9.9-4.2,2.8-21.3-7.4-17.5c-15.9,5.8-32.1,12.4-44.1,24.7c-13,13.2-19.7,31.3-24.3,48.9c-2,7.7-3.1,15.5-2.9,23.1
				c-0.4-0.7-0.9-1.4-1.5-2.1c3.1,3.8,0.1-0.1-0.5-1.2c-0.6-1.1-2-5.2-0.6-1c-1.1-3.2-2.4-6.4-3.4-9.6c-2.4-7.7-4.2-15.5-6.1-23.2
				c-4.1-16.2-8.6-33.5-19.6-46.6c-12.5-14.8-33.6-17.3-50-7.5c-19.2,11.5-32.1,33.6-41.8,53.1c-2.2,4.4-4,8.7-5.6,13
				c-0.8-2.6-1.6-5.1-2.5-7.6c-3.1-8.8-6.5-17.6-10-26.2c-3.1-7.7-6.7-15.6-13.1-21.1c-17.5-14.9-39.9-0.8-51.4,14.4
				c-2.4,3.1-4.4,6.4-6.2,9.8c-0.1-2.2-0.1-4.4-0.2-6.6c-0.2-12.1-18.6-12.1-18.8,0c-0.4,21.8,0.3,43.9-1.6,65.7
				c-1.6,17.4-4.1,35,0.9,52.1c2.6,9,12.9,10.8,19.6,5.2c7-5.9,8.2-16.1,8.2-24.7c0-8.3-0.5-16.3,0.7-24.6
				c2.3-16.7,4.8-35.8,11.6-50.8c3-6.6,7-12.9,12.1-17c2.5-2,5.6-3.9,8.2-4.3c0.1,0,0.1,0.1,0.2,0.1c0.1,0.1,0.1,0.1,0.2,0.2
				c0,0.2,0,0.1,0,0c0,0,0.1,0.1,0.1,0.1c0.2,0.1,0.6,0.6,0.7,0.8c0.3,0.4,0.6,0.8,0.8,1.3c0.8,1.3,1.5,2.6,2.1,3.9
				c0.4,0.8,0.8,1.6,1.1,2.4c0,0,0,0,0,0.1c0,0.1,0.1,0.3,0.2,0.6c0.8,1.9,1.5,3.8,2.2,5.8c3.4,9.2,7.2,18.3,10,27.8
				c2.8,9.5,3.5,17.8,3.4,27.6c-0.1,11.6,2.4,21.7,12.1,28.9c3.5,2.6,9.8,2.4,13.3,0c9.1-6.4,13.2-16.1,15.6-26.6
				c2.1-9,3.9-18.4,5.5-27.5c0-0.1,0-0.2,0-0.2c0.3-0.7,0.7-1.4,1-2.1c0.9-1.8,1.8-3.6,2.7-5.3c2.3-4.4,4.7-8.7,7.2-13
				c5.4-9.2,10.5-17,17.4-24c1.6-1.6,3.2-3.2,4.9-4.6c-0.2,0.2,3.1-2.2,3.9-2.6c0.4-0.2,2.6-1.1,2.2-1c0.3-0.1,0.7-0.2,1-0.3
				c0.8-0.2,4.3-0.5,0.5-0.2c1-0.1,2-0.2,2.9-0.2c0.5,0,1.1,0.1,1.7,0.1c0.3,0.1,1.1,0.4,1.6,0.4c0.9,0.7,3,2.3,2.3,1.5
				c0.8,0.8,1.6,1.6,2.5,2.5c-0.1-0.2-0.2-0.3-0.4-0.6c0.1,0.2,0.3,0.4,0.4,0.6c0,0,0.1,0.1,0.1,0.1c0.5,0.4,1,1.4,0.4,0.7
				c0.2,0.3,0.4,0.6,0.6,0.9c0.9,1.4,1.7,2.8,2.4,4.2c0.2,0.5,1.1,2.2,1.4,3c0.2,0.5,0.5,1.1,0.5,1.2c0.4,1,0.8,2,1.1,3
				c2.6,7.5,4.6,15.2,6.4,22.9c3.8,15.8,6.5,34,18.1,46.2c5.2,5.5,14.6,5.3,19.9,0c1.6-1.6,2.7-3.4,3.3-5.2
				c2,7.4,5.7,14.2,11.8,20.3c12.2,12.2,29.5,18.1,46.2,20.1c17.1,2,36.8-1.9,48.3-15.8c4.5-5.4,5.3-13.1,0-18.4
				C1437.6,700.5,1429.2,700.6,1424.2,705.5z M1163.1,626c0-0.1,0-0.1,0-0.2C1163.4,625.8,1163.2,626,1163.1,626z M1195.3,703.2
				C1195.1,703.5,1195,703.5,1195.3,703.2L1195.3,703.2z M1210.6,703.6c0.1,0.1,0.1,0.2,0.1,0.2
				C1210.6,704.1,1210.6,705.2,1210.6,703.6z"/>
			<path class="st5" d="M1612.9,580.5c-1.9-6.9-10.5-13.1-17.8-10.1c-5.7,2.3-11.7,3.9-17.8,5.1c-4.2,0.8-3.7,0.7-8.4,1.1
				c-3.9,0.3-7.8,0.4-11.8,0.2c-4.7-0.2-4-0.1-8.2-1.1c-1.5-0.4-3-0.8-4.5-1.3c-0.3-0.1-0.7-0.3-1-0.4c-0.3-0.2-1.3-0.7-1.5-0.8
				c-0.6-0.4-2.7-2-2.2-1.5c-0.4-0.4-0.8-0.8-1.3-1.2c1,1,0.4,0.3-0.1-0.2c0.1,0.1-0.2-0.9-0.2-0.8c-0.2-2.2-0.1-1.7,0.5-4.5
				c3.4-14.5,12.8-30.9,3.5-45.3c-7.7-11.9-22.4-11.8-33.6-5.3c-11.1,6.4-20.9,18.9-18.2,32.3c1.9,9.4,18.2,7.4,16.9-2.3
				c0-0.4-0.1-1.4-0.1-1.9c0.1,0,0.7-2.2,0.1-1c1-2.3,1.2-2.4,3-4.2c2.8-2.8,5.9-4.6,9.3-5.5c0.3-0.1,1.5-0.3,2.1-0.4
				c0.2,0,0.4,0,0.6,0c0,0.5,0.1,1,0.1,1.3c0.1,2.8-0.6,5.1-1.8,8.6c-5.1,15-13.7,31.1-2.6,45.8c9.4,12.5,25,16.7,39.9,17.8
				c14.8,1,31-1,44.9-6.2C1610.1,595.6,1615.1,588.5,1612.9,580.5z M1522.1,530.2C1522.1,530.2,1522,530.2,1522.1,530.2
				C1522,530,1522.1,530,1522.1,530.2z M1522.2,530.3C1522.1,530.3,1522.1,530.3,1522.2,530.3
				C1522.1,530.2,1522.1,530.3,1522.2,530.3z M1522.1,530.7C1522.1,530.7,1522.1,530.7,1522.1,530.7c0,0,0-0.1,0-0.1
				C1522.1,530.6,1522.1,530.7,1522.1,530.7z M1522.2,530.8C1522.2,530.7,1522.2,530.7,1522.2,530.8
				C1522.2,530.8,1522.2,530.8,1522.2,530.8C1522.2,530.8,1522.2,530.8,1522.2,530.8C1522.2,530.8,1522.2,530.8,1522.2,530.8z
				 M1522.9,531.2c0.1,0,0.1,0.1,0.2,0.1C1523,531.2,1522.9,531.2,1522.9,531.2C1522.8,531.2,1522.8,531.2,1522.9,531.2z
				 M1523.2,531.3C1523.2,531.2,1523.2,531.2,1523.2,531.3C1523.2,531.2,1523.2,531.2,1523.2,531.3
				C1523.1,531.2,1523.1,531.2,1523.2,531.3c0.2-0.1,0.5-0.1,0.6-0.1C1523.5,531.2,1523.3,531.2,1523.2,531.3z"/>
		</g>
		<g>
			<path class="st5" d="M100,594.4c-3.2,8.8-4.6,17.5-3.9,26.9c0.3,3.7,5.7,3.8,5.8,0c0.3-8.6,1.8-17,4.7-25
				C108.1,592.1,101.5,590.3,100,594.4L100,594.4z"/>
		</g>
		<g>
			<path class="st5" d="M99.5,681.9c0,17.3-0.2,34.6,0.6,51.9c0.2,4.1,6.2,4.1,6.4,0c0.9-17.3,0.6-34.6,0.6-51.9
				C107.1,677,99.5,677,99.5,681.9L99.5,681.9z"/>
		</g>
		<g>
			<path class="st5" d="M73,1257.1c0.9,12,12.2,20.1,18.9,29.1c9.3,12.5,18.4,25.5,31.2,34.7c3,2.2,7.2-2.1,5.1-5.1
				c-4.1-6-9.4-11-14.3-16.4c-4.9-5.4-9.3-11.1-13.6-17c-3-4.2-6.6-7.9-10-11.7c-3.2-3.6-8.1-8.4-8.6-13.5
				C81.2,1251.6,72.6,1251.5,73,1257.1L73,1257.1z"/>
		</g>
		<g>
			<path class="st5" d="M71.1,1316.6c13.5,7.8,21.9,21.5,34.5,30.5c3.7,2.7,8.6-3.6,4.9-6.4c-12.5-9.6-21.4-23.1-35.6-30.7
				C70.6,1307.8,66.9,1314.2,71.1,1316.6L71.1,1316.6z"/>
		</g>
		<g>
			<path class="st5" d="M1638.8,115.9c14.5,1.2,27.3,7.8,40.6,13.1c6.6,2.7,13.5,4.8,20.2,7.2c7,2.5,13.9,4.7,21.4,4.5
				c4.4-0.1,5.1-6.2,1-7.6c-7.4-2.5-14.6-5.7-21.9-8.4c-6.7-2.4-13.5-4.3-20.1-6.9c-13.5-5.3-26.5-10.9-41.1-11.9
				C1632.4,105.5,1632.5,115.4,1638.8,115.9L1638.8,115.9z"/>
		</g>
		<g>
			<path class="st5" d="M1755.4,99.2c1.5,4.3,3.1,8.6,4.6,12.9c1.8,5.1,9.9,3,8.2-2.3c-1.3-4.4-2.7-8.7-4-13.1
				C1762.6,91,1753.5,93.6,1755.4,99.2L1755.4,99.2z"/>
		</g>
		<g>
			<path class="st5" d="M455.7,205.2c4.3-2.9,8.6-5.8,13-8.7c4.2-2.8,0.3-9.7-4-6.9c-4.3,2.9-8.7,5.7-13,8.6
				C447.3,201.1,451.4,208.1,455.7,205.2L455.7,205.2z"/>
		</g>
		<g>
			<path class="st5" d="M740,1070.2c2.9,2.9,5.8,5.8,8.7,8.7c4.4,4.4,11.3-2.4,6.9-6.9c-2.9-2.9-5.8-5.8-8.7-8.7
				C742.4,1058.9,735.6,1065.8,740,1070.2L740,1070.2z"/>
		</g>
		<g>
			<path class="st5" d="M646,1105.4c2.9,1.4,5.8,2.9,8.7,4.3c2.2,1.1,5,0.6,6.3-1.6c1.2-2,0.6-5.2-1.6-6.3c-2.9-1.4-5.8-2.9-8.7-4.3
				c-2.2-1.1-5-0.6-6.3,1.6C643.1,1101.1,643.7,1104.3,646,1105.4L646,1105.4z"/>
		</g>
		<g>
			<path class="st5" d="M2025,1015.3c11.2-2,21-6.9,31.1-12c10.1-5.1,20.7-9.9,28.1-18.7c5-5.9-2.6-13.5-8.5-8.5
				c-7.8,6.6-17.2,11.4-26,16.4c-8.6,4.9-17.4,11.7-27.3,13.5C2016.3,1007,2018.9,1016.4,2025,1015.3L2025,1015.3z"/>
		</g>
		<g>
			<path class="st5" d="M2061.5,1081c14-9.3,28.1-18.5,42.6-27c4.8-2.8,1.6-11.5-3.9-9.3c-16.4,6.4-30.6,15.6-45.1,25.4
				C2048.4,1074.5,2054.7,1085.5,2061.5,1081L2061.5,1081z"/>
		</g>
		<g>
			<path class="st5" d="M1128.4,1404.6c6.1,0,6.1-9.5,0-9.5C1122.3,1395.1,1122.3,1404.6,1128.4,1404.6L1128.4,1404.6z"/>
		</g>
		<g>
			<path class="st5" d="M1150,1357.4c6.6,0,6.6-10.2,0-10.2C1143.4,1347.2,1143.4,1357.4,1150,1357.4L1150,1357.4z"/>
		</g>
	</g>
	<g>
		<path class="st6" d="M1589.8,1603.1c0,0,234.3,118.3,237.9,128s444.3,0,444.3,0v-138.9L1589.8,1603.1z"/>
		<g>
			<g>
				<polygon class="st7" points="1558,1218.2 1558,1231.9 1589.8,1231.9 1589.8,1335.8 1558,1335.8 1558,1352 2272,1352 
					2272,1218.2 				"/>
				<rect x="1572.8" y="1231.9" class="st8" width="684.7" height="103.8"/>
				<rect x="1572.8" y="1244.4" class="st4" width="684.7" height="6.7"/>
				<rect x="1572.8" y="1262.8" class="st4" width="684.7" height="6.7"/>
				<rect x="1572.8" y="1281.2" class="st4" width="684.7" height="6.7"/>
				<rect x="1572.8" y="1299.7" class="st4" width="684.7" height="6.7"/>
				<rect x="1572.8" y="1318.1" class="st4" width="684.7" height="6.7"/>
			</g>
			<g>
				<polygon class="st9" points="1507.6,1352 1507.6,1365.7 1539.5,1365.7 1539.5,1469.6 1507.6,1469.6 1507.6,1485.8 
					2221.7,1485.8 2221.7,1352 				"/>
				<rect x="1522.5" y="1365.7" class="st8" width="684.7" height="103.8"/>
				<rect x="1522.5" y="1378.2" class="st4" width="684.7" height="6.7"/>
				<rect x="1522.5" y="1396.6" class="st4" width="684.7" height="6.7"/>
				<rect x="1522.5" y="1415" class="st4" width="684.7" height="6.7"/>
				<rect x="1522.5" y="1433.5" class="st4" width="684.7" height="6.7"/>
				<rect x="1522.5" y="1451.9" class="st4" width="684.7" height="6.7"/>
			</g>
			<g>
				<polygon class="st10" points="1558,1485.6 1558,1499.3 1589.8,1499.3 1589.8,1603.1 1558,1603.1 1558,1619.3 2272,1619.3 
					2272,1485.6 				"/>
				<rect x="1572.8" y="1499.3" class="st8" width="684.7" height="103.8"/>
				<rect x="1572.8" y="1511.7" class="st4" width="684.7" height="6.7"/>
				<rect x="1572.8" y="1530.2" class="st4" width="684.7" height="6.7"/>
				<rect x="1572.8" y="1548.6" class="st4" width="684.7" height="6.7"/>
				<rect x="1572.8" y="1567" class="st4" width="684.7" height="6.7"/>
				<rect x="1572.8" y="1585.4" class="st4" width="684.7" height="6.7"/>
			</g>
		</g>
		<path class="st6" d="M2207.2,1638.3l-305.7-23.1l-1,12.6l138.4,12.9c0,0,8.9,34.6,39.2,43.4c30.4,8.7-123.6,8.9-123.6,8.9
			s-178.2-3.8-187.1-8.7c-8.9-4.9-167.6-2-167.6-2l5.6,13.3l162.2,3.6c0,0,43.4,53.3,85.3,59.2c41.9,5.8,120.6-49.4,120.6-49.4
			s120.9-15.7,127.4-16S2186.6,1678.9,2207.2,1638.3z"/>
		<g>
			<path class="st11" d="M2231.3,1537.7l-287.4,24c-15.4,1.3-29.1,10.2-36.4,23.8l-13.7,25.2c-3.6,6.6-0.3,14.9,6.9,17.2h0
				c5.7,1.8,11.9-0.8,14.5-6.1l7.9-16c6.9-13.9,20.3-23.3,35.7-25.1l274.1-32.3c0.1-0.4,0.2-0.7,0.2-1.1
				C2233.8,1543.9,2230.4,1540.9,2231.3,1537.7z"/>
			<g>
				<g>
					<path class="st12" d="M1956.7,1536.7l-3.7-1.9c-8.1-4.2-17.3-5.9-26.4-5l-109.3,11c-18.7,1.9-37.3,12.9-50.7,30.4
						c-6.3,8.1-11.1,17.3-14.6,26.8l-294.3,24.6c-15.4,1.3-29.1,10.2-36.4,23.8l-13.7,25.2c-3.6,6.6-0.3,14.9,6.9,17.2h0
						c5.7,1.8,11.9-0.8,14.5-6.1l7.9-16c6.9-13.9,20.3-23.3,35.7-25.1l276.2-32.5c-4.7,19.8-3.4,40.7,4.6,58.2l14.5,32.1
						c10,22.1,25.4,39,44.4,49.1c18.6,9.9,39.6,12.5,60.6,7.9l12-2.6c50.4-11,92-62.9,101.1-123.3l2.5-16.3
						C1993.3,1580.5,1980.5,1548.9,1956.7,1536.7z M1981.4,1613.3l-2.5,16.4c-8.5,56.5-47.2,104.4-94.2,114.4l-12,2.6
						c-40.2,8.6-78.4-11.8-97.1-53.2l-14.4-32c-7.3-16.2-8.2-35.5-3.3-53.6l3.6-10.7c2.9-7,6.7-13.7,11.3-19.7h0
						c11.8-15.5,27.9-25.1,44.4-26.9l109.3-11.5c8.1-0.9,16.1,0.6,23.3,4.2l3.7,1.9C1974.6,1555.9,1985.9,1583.7,1981.4,1613.3z"/>
					<path class="st13" d="M1953.5,1545.2l-3.7-1.9c-7.2-3.6-15.1-5.1-23.3-4.2l-109.3,11.5c-16.5,1.7-32.6,11.4-44.4,26.9h0
						c-18.6,24.3-23.3,58.1-11.6,84l14.4,32c18.7,41.5,56.9,61.8,97.1,53.2l12-2.6c47.1-10,85.7-57.9,94.2-114.4l2.5-16.4
						C1985.9,1583.7,1974.6,1555.9,1953.5,1545.2z"/>
				</g>
				<g>
					<path class="st12" d="M2205.9,1497.1l-3.3-1.7c-7.2-3.7-15.2-5.2-23.4-4.4l-96.6,9.7c-16.5,1.7-32.9,11.4-44.8,26.9
						c-18.8,24.4-23.6,58.7-11.7,84.8l12.9,28.3c8.8,19.5,22.5,34.5,39.2,43.4c16.4,8.7,35,11.1,53.5,7l10.6-2.3
						c44.6-9.7,81.3-55.5,89.3-108.9l2.2-14.4C2238.3,1535.8,2227,1507.9,2205.9,1497.1z M2227.8,1564.8l-2.2,14.5
						c-7.5,49.9-41.7,92.2-83.2,101.1l-10.6,2.3c-35.5,7.6-69.2-10.4-85.8-47l-12.8-28.3c-10.3-22.9-6.2-52.7,10.2-74.2l0,0
						c10.5-13.7,24.7-22.2,39.2-23.7l96.6-10.2c7.2-0.8,14.2,0.5,20.6,3.7l3.3,1.7C2221.8,1514.1,2231.7,1538.7,2227.8,1564.8z"/>
					<path class="st13" d="M2203.1,1504.7l-3.3-1.7c-6.3-3.2-13.4-4.5-20.6-3.7l-96.6,10.2c-14.6,1.5-28.8,10.1-39.2,23.7l0,0
						c-16.4,21.5-20.6,51.3-10.2,74.2l12.8,28.3c16.5,36.6,50.2,54.6,85.8,47l10.6-2.3c41.6-8.9,75.7-51.2,83.2-101.1l2.2-14.5
						C2231.7,1538.7,2221.8,1514.1,2203.1,1504.7z"/>
					<path class="st13" d="M2168.5,1545.8c1.6-2.5,22.6-29.6,32.5-42.3l-1.1-0.6c-6.3-3.2-13.4-4.5-20.6-3.7l-14.6,1.5l-48.9,65.5
						l20.4-5.9l-62.9,109.9c15.4,11.3,34.1,16.1,53.6,13.2l57.6-128.4C2184.5,1555.1,2166.3,1549.1,2168.5,1545.8z"/>
				</g>
				<path class="st12" d="M1977.1,1566.3l13.8,3.3c0.7,0.2,1.4,0.2,2,0.1l26.8-4l9.9-8.9l-1.5-5.8l-12.2,10l-25.1,2.9l-17.1-5
					L1977.1,1566.3z"/>
				<path class="st14" d="M1937.1,1529.9"/>
				<path class="st13" d="M1927.6,1582.9l24.2-38.5l-2-1c-5.9-3-12.3-4.5-18.9-4.4l-52.7,76.1l20.4-7.9l-90.8,126.5
					c10.4,7.4,22.1,12.1,34.5,14l94.8-155.8L1927.6,1582.9z"/>
			</g>
			<path class="st15" d="M2180,1480.3"/>
		</g>
		<g>
			<g class="st16">
				<polygon class="st2" points="23.7,1644.7 302.4,1780.8 487.8,1851.6 1853.1,1812 1676.3,1724.4 				"/>
			</g>
			<g>
				<g>
					<polygon class="st17" points="23.7,1533.9 629.1,1533.9 1286.5,1533.9 1687.9,1634.9 336.6,1690.3 					"/>
				</g>
				<g>
					<path class="st5" d="M1019.2,1655.9c0,0,54.5-57.6,163.1-40.2c108.6,17.4,298.7,41.2,468.2-1.4l15.7-21.6l-307.6-76.9
						c0,0-119.9,13.9-187.7,0c-67.7-13.9-249.2-23.7-281.6,27.8L1019.2,1655.9z"/>
				</g>
				<g>
					<path class="st15" d="M934.9,1612.2c-25-16.7-51.4-32.2-80.4-40.1c-64.1-17.6-133.9,4-188.5,41.9c-27.3,18.9-51.5,41.6-74,66
						l411-16.9C981.1,1644.9,958.4,1627.9,934.9,1612.2z"/>
				</g>
				<g>
					<polygon class="st5" points="23.7,1599.8 23.7,1533.9 336.6,1690.3 1021.6,1663.5 1687.9,1634.9 1687.9,1702.1 1070.1,1717.2 
						1025.4,1677.6 980.7,1719.4 310.2,1735.9 					"/>
				</g>
				<g>
					<polygon class="st18" points="336.6,1690.3 23.7,1533.9 23.7,1599.8 310.1,1735.8 339.6,1690.2 					"/>
				</g>
				<g>
					<g>
						<polygon class="st19" points="333.4,1699.8 332.6,1699.9 23.7,1543.6 23.7,1547.4 331.3,1703 						"/>
					</g>
					<g>
						<polygon class="st19" points="322.9,1714.5 323.9,1714.4 326.2,1710.9 323.6,1711 23.7,1559.4 23.7,1563.2 322.5,1714.3 
													"/>
					</g>
					<g>
						<polygon class="st19" points="319.6,1721.1 318.7,1721.2 23.7,1569.6 23.7,1573.5 317.5,1724.4 						"/>
					</g>
					<g>
						<g>
							<polygon class="st18" points="331.5,1703.1 331.9,1703.3 1688,1650.5 1687.8,1647.1 333.4,1699.8 331.3,1703 							"/>
						</g>
						<g>
							<polygon class="st18" points="323.9,1714.4 1688,1660.5 1687.9,1655.9 326.2,1710.9 							"/>
						</g>
						<g>
							<polygon class="st18" points="317.5,1724.4 318,1724.6 1687.9,1671.5 1687.9,1666.7 319.6,1721.1 							"/>
						</g>
						<g>
							<polygon class="st18" points="316.2,1726.3 314.4,1729.2 317.6,1730.9 318,1731.1 1688,1684.1 1687.9,1679.3 318.7,1727.6 
															"/>
						</g>
					</g>
					<g>
						<polygon class="st19" points="316.2,1726.3 23.7,1576.1 23.7,1579.9 314.4,1729.2 						"/>
					</g>
				</g>
				<g>
					<path class="st7" d="M938.2,1735.9l83.4-72.4c0,0,90,76.2,93.7,78.6S938.2,1735.9,938.2,1735.9z"/>
				</g>
				<g>
					<path class="st7" d="M23.7,1644.7l278.6,136.1H948c0,0,87.8-91.8,149.3,0l623.6-30.7v-48l-1410.7,33.8L23.7,1599.8V1644.7z"/>
				</g>
				<g>
					<path class="st5" d="M1021.6,1663.5c0,0-89.4-82.7-225.7-28.6c-136.4,54.1-377.1,38.5-425.4,37.9S72,1522.9,72,1522.9
						s266.4,12.6,351.6-21.5c85.2-34.1,287-56.8,400.6,0C824.2,1501.5,977.4,1552.8,1021.6,1663.5z"/>
				</g>
				<g>
					<path class="st17" d="M872.3,1607.7c-98.1,13.9-245.4,96.8-525.1,57.4L72,1522.9c-5.3,5.8-6.4,11-6.4,11
						s247.6,143.2,295.9,143.8c48.3,0.6,297.9,11.3,434.3-42.8c136.4-54.1,225.7,28.6,225.7,28.6S970.5,1593.8,872.3,1607.7z"/>
				</g>
				<g>
					<path class="st15" d="M446.4,1646.2c-54.9,0-98-2-102.1-2.2c-1.7-0.1-3-1.5-3-3.2c0.1-1.7,1.5-3,3.2-2.9
						c2.3,0.1,231.7,10.7,317.1-17.4c13.4-4.4,27.4-9.3,40.9-14c77-26.9,156.6-54.8,225.3-33.2c1.6,0.5,2.5,2.3,2,3.9
						c-0.5,1.6-2.3,2.5-3.9,2c-66.7-21-145.3,6.5-221.4,33.1c-13.6,4.7-27.6,9.6-41,14.1C614.2,1642.6,519.8,1646.2,446.4,1646.2z"
						/>
				</g>
				<g>
					<path class="st15" d="M425.3,1628.6c-54.6,0-97.5-2-101.5-2.2c-1.7-0.1-3-1.5-2.9-3.2c0.1-1.7,1.6-3,3.2-2.9
						c2.3,0.1,230.3,10.7,315.6-17.4c13.4-4.4,27.4-9.3,40.9-14c77-26.9,156.6-54.8,225.3-33.2c1.6,0.5,2.5,2.3,2,3.9
						c-0.5,1.6-2.3,2.5-3.9,2c-66.7-21-145.4,6.5-221.4,33.1c-13.6,4.7-27.6,9.6-41,14.1C592.1,1625,498.3,1628.6,425.3,1628.6z"/>
				</g>
				<g>
					<path class="st15" d="M383.2,1609.7c-51.3,0-90.8-1.7-94.7-1.8c-1.7-0.1-3-1.5-3-3.2c0.1-1.7,1.5-3,3.2-3
						c2.3,0.1,232.5,9.9,317.8-18.3c13.4-4.4,27.4-9.3,40.9-14c77-26.9,156.6-54.8,225.3-33.2c1.6,0.5,2.5,2.3,2,3.9
						c-0.5,1.6-2.3,2.5-3.9,2c-66.7-21-145.4,6.5-221.4,33.1c-13.6,4.7-27.6,9.6-41,14.1C557.4,1606.1,457.8,1609.7,383.2,1609.7z"
						/>
				</g>
				<g>
					<path class="st15" d="M371.6,1592.5c-56.2,0-100.5-2-104.6-2.2c-1.7-0.1-3-1.5-3-3.2c0.1-1.7,1.5-3,3.2-3
						c2.4,0.1,238,10.7,323.3-17.4c13.4-4.4,27.4-9.3,40.9-14c77-26.9,156.6-54.8,225.3-33.2c1.6,0.5,2.5,2.3,2,3.9
						c-0.5,1.6-2.3,2.5-3.9,2c-66.7-21-145.4,6.5-221.4,33.1c-13.6,4.7-27.6,9.6-41,14.1C543,1588.9,446.7,1592.5,371.6,1592.5z"/>
				</g>
				<g>
					<path class="st15" d="M335.4,1574.3c-56.2,0-100.5-2-104.6-2.2c-1.7-0.1-3-1.5-3-3.2s1.5-3,3.2-3c2.4,0.1,238,10.7,323.3-17.4
						c13.4-4.4,27.4-9.3,40.9-14c77-26.9,156.6-54.8,225.3-33.2c1.6,0.5,2.5,2.3,2,3.9c-0.5,1.6-2.3,2.5-3.9,2
						c-66.7-21-145.4,6.5-221.4,33.1c-13.6,4.7-27.6,9.6-41,14.1C506.9,1570.7,410.6,1574.3,335.4,1574.3z"/>
				</g>
				<g>
					<path class="st15" d="M246.3,1557.3c-41.9,0-71-0.8-71.4-0.8c-1.7-0.1-3.1-1.5-3-3.2c0-1.7,1.4-3,3.1-3c0,0,0.1,0,0.1,0
						c2.8,0.1,284.5,7.8,367.3-26.7c88.7-37,139.1-51,221.7-41.4c1.7,0.2,2.9,1.7,2.7,3.4c-0.2,1.7-1.7,2.9-3.4,2.7
						c-81.2-9.4-131,4.4-218.6,41c-35.4,14.8-108.4,23.8-217.1,26.9C298.4,1557.1,270.2,1557.3,246.3,1557.3z"/>
				</g>
				<g>
					<path class="st15" d="M182.2,1543.3c-31.3,0-52.1-0.4-52.4-0.4c-1.7,0-3.1-1.4-3-3.2c0-1.7,1.4-3.1,3.2-3
						c0.6,0,60.8,1.1,131-0.4c64.7-1.4,151.5-5.4,197.2-16.4c37.9-9.1,62.7-17.6,84.6-25c39.1-13.3,65-22.2,129.8-22.2
						c0.5,0,1,0,1.5,0c1.7,0,3.1,1.4,3.1,3.1c0,1.7-1.4,3.1-3.1,3.1c0,0,0,0,0,0c-0.5,0-1,0-1.5,0c-63.8,0-89.3,8.7-127.8,21.8
						c-22,7.5-47,16-85.1,25.2c-37.1,8.9-103.9,14.5-198.5,16.5C231.8,1543.1,204.4,1543.3,182.2,1543.3z"/>
				</g>
				<g>
					<path class="st15" d="M1006,1615.2c-1.2,0-2.3-0.7-2.8-1.8c-0.7-1.5-0.1-3.4,1.5-4.1c3-1.4,73.8-34.7,134.7-24.1
						c32.7,5.7,133.4,16.1,229.7,20.1c87.4,3.6,200,3.3,239.8-18.7c1.5-0.8,3.4-0.3,4.2,1.2c0.8,1.5,0.3,3.4-1.2,4.2
						c-22.7,12.5-83.3,26.1-243.1,19.5c-96.6-4-197.6-14.5-230.5-20.2c-58.9-10.2-130.2,23.3-130.9,23.6
						C1006.9,1615.1,1006.4,1615.2,1006,1615.2z"/>
				</g>
				<g>
					<path class="st15" d="M1413.4,1592.1c-21.8,0-41.6-0.6-55.1-1.1c-79-3-160-11.8-206.2-22.2c-48-10.8-90.7-4.8-118.1,2.2
						c-29.7,7.6-48.3,17.9-48.5,18c-1.5,0.8-3.4,0.3-4.2-1.2c-0.8-1.5-0.3-3.4,1.2-4.2c0.8-0.4,19.3-10.7,49.8-18.5
						c28.1-7.2,71.9-13.4,121.2-2.2c92.5,20.9,325.8,34.1,378.8,11c1.6-0.7,3.4,0,4.1,1.6c0.7,1.6,0,3.4-1.6,4.1
						C1511.1,1589.7,1458.1,1592.1,1413.4,1592.1z"/>
				</g>
				<g>
					<path class="st15" d="M1386.2,1575.4c-15.6,0-31-0.6-44.9-1.5c-53.4-3.3-116.4-12-177.6-24.5c-58.3-11.9-108.8-6.1-140.8,0.9
						c-34.8,7.6-56,18.1-56.3,18.3c-1.5,0.8-3.4,0.2-4.2-1.4c-0.8-1.5-0.2-3.4,1.4-4.2c0.9-0.4,22-11,57.5-18.7
						c32.7-7.2,84.1-13.1,143.6-1c114.6,23.4,254.2,36.9,307.9,14.3c1.6-0.7,3.4,0.1,4.1,1.7c0.7,1.6-0.1,3.4-1.7,4.1
						C1453.3,1572.6,1419.3,1575.4,1386.2,1575.4z"/>
				</g>
				<g>
					<path class="st15" d="M951.3,1557.3c-1,0-2.1-0.5-2.6-1.5c-0.9-1.5-0.4-3.4,1-4.3c0.7-0.4,17.7-10.8,46.8-20
						c26.8-8.4,69.2-17.4,119.1-11.8c26.2,2.9,55.4,7.2,86.4,11.7c80,11.7,170.7,24.9,228.6,16.5c1.7-0.2,3.3,0.9,3.5,2.6
						c0.2,1.7-0.9,3.3-2.6,3.5c-58.8,8.5-150-4.7-230.4-16.5c-30.9-4.5-60-8.8-86.1-11.7c-48.8-5.4-90.2,3.3-116.4,11.5
						c-28.4,8.9-45.5,19.3-45.6,19.4C952.4,1557.2,951.8,1557.3,951.3,1557.3z"/>
				</g>
			</g>
		</g>
		<path class="st20" d="M1335,1526c-2.5,10.9,99.1,118.7,99.1,118.7l6.8,67.2l47.3,49.7l167.3,32.7l10.8-20.4l-137.3-14.3
			l-58.5-45.1v-69.8l-113.8-114.5L1335,1526z"/>
		<path class="st14" d="M1680.9,1761.7l-322.1-245.9l-46.7-16.6l20.5,37.6l323,257.4c6.5,5.2,15.6,6,22.9,1.9
			C1691.4,1788.9,1692.7,1770.7,1680.9,1761.7z"/>
	</g>
	<polygon class="st21" points="1339.2,1522.8 1341.3,1515.1 1351.7,1518.4 1351.7,1513.3 1312.1,1499.3 1332.5,1536.9 
		1330.1,1522.8 	"/>
	<path class="st14" d="M1320.2,1502.2l-8.1-2.9l4.9,8.9c1.1,0.1,2.2,0.3,3.2,0.4C1320.1,1506.4,1320.1,1504.3,1320.2,1502.2z"/>
</g>
</svg>
